<?xml version="1.0" standalone="no"?>
<!DOCTYPE svg PUBLIC "-//W3C//DTD SVG 20010904//EN"
 "http://www.w3.org/TR/2001/REC-SVG-20010904/DTD/svg10.dtd">
<svg version="1.0" xmlns="http://www.w3.org/2000/svg"
 width="1280.000000pt" height="265.000000pt" viewBox="0 0 1280.000000 265.000000"
 preserveAspectRatio="xMidYMid meet">

<g transform="translate(0.000000,265.000000) scale(0.100000,-0.100000)"
fill="#000000" stroke="none">
<path d="M640 1825 l-295 -190 365 -5 365 -5 76 80 77 80 -37 13 c-20 7 -72
17 -116 22 -107 13 -128 33 -135 128 l-5 68 -295 -191z"/>
<path d="M1460 1806 c-186 -52 -331 -203 -375 -388 -25 -109 -14 -244 28 -324
l13 -24 44 29 c75 50 94 89 97 194 3 113 30 174 108 245 90 82 102 85 471 91
l321 6 40 27 c42 27 83 95 83 136 l0 22 -392 -1 c-282 -1 -406 -4 -438 -13z"/>
<path d="M3045 1746 c-16 -8 -41 -24 -54 -36 -44 -42 -51 -78 -51 -248 0 -146
2 -162 23 -203 37 -71 83 -89 234 -89 l123 0 0 -75 0 -75 -190 0 -190 0 0
-111 0 -110 243 3 c234 3 243 4 274 26 18 12 43 37 55 55 22 30 23 41 23 207
0 197 -5 216 -72 267 -35 27 -41 28 -175 31 l-138 4 0 74 0 74 195 0 195 0 0
110 0 110 -232 0 c-173 -1 -241 -4 -263 -14z"/>
<path d="M3845 1746 c-41 -19 -75 -53 -91 -92 -18 -42 -21 -695 -3 -741 5 -15
22 -41 37 -57 48 -51 74 -56 289 -56 179 0 201 2 240 21 29 14 51 35 68 62
l24 42 2 350 c3 397 2 403 -74 453 -40 27 -42 27 -251 29 -162 2 -218 0 -241
-11z m355 -466 l0 -260 -125 0 -125 0 0 260 0 260 125 0 125 0 0 -260z"/>
<path d="M4612 1343 c3 -466 2 -454 75 -510 l36 -28 205 -3 c172 -3 212 -1
248 13 51 19 89 61 104 113 6 23 10 192 10 435 l0 397 -110 0 -110 0 0 -370 0
-370 -120 0 -120 0 0 370 0 370 -111 0 -110 0 3 -417z"/>
<path d="M5490 1280 l0 -480 105 0 105 0 2 248 3 247 122 -247 122 -248 105 0
106 0 0 480 0 480 -105 0 -105 0 0 -247 c-1 -203 -3 -245 -13 -231 -7 9 -62
120 -123 247 l-109 230 -107 1 -108 0 0 -480z"/>
<path d="M6362 1283 l3 -478 275 0 c311 0 317 1 368 77 l27 41 3 311 c2 171 1
334 -3 363 -8 67 -39 112 -95 141 -43 21 -54 22 -312 22 l-268 0 2 -477z m446
245 c9 -9 12 -77 12 -244 0 -198 -2 -235 -16 -248 -12 -13 -38 -16 -120 -16
l-104 0 0 260 0 260 108 0 c71 0 112 -4 120 -12z"/>
<path d="M7601 1737 c-31 -16 -52 -37 -68 -67 -23 -43 -23 -47 -23 -387 0
-373 1 -383 56 -435 41 -38 96 -48 279 -48 214 0 255 12 309 84 18 23 22 45
24 137 l4 109 -106 0 -106 0 0 -55 0 -55 -125 0 -125 0 0 260 0 260 125 0 125
0 0 -55 0 -55 105 0 105 0 0 97 c0 114 -19 164 -77 203 -36 24 -41 25 -247 28
-205 3 -212 2 -255 -21z"/>
<path d="M8502 1753 c-38 -7 -99 -73 -111 -121 -8 -29 -11 -147 -9 -375 3
-371 3 -369 75 -424 l36 -28 211 -3 c203 -3 213 -2 255 20 53 27 79 60 91 114
5 21 10 182 10 357 0 264 -3 324 -15 354 -21 50 -42 72 -90 94 -35 16 -65 18
-235 17 -107 0 -205 -3 -218 -5z m338 -473 l0 -260 -120 0 -120 0 0 260 0 260
120 0 120 0 0 -260z"/>
<path d="M9260 1280 l0 -480 283 2 282 3 3 108 3 107 -181 0 -180 0 0 370 0
370 -105 0 -105 0 0 -480z"/>
<path d="M10030 1280 l0 -480 280 0 280 0 0 110 0 110 -175 0 -175 0 0 370 0
370 -105 0 -105 0 0 -480z"/>
<path d="M11060 1755 c0 -2 -58 -214 -130 -470 -71 -257 -130 -471 -130 -476
0 -5 46 -9 104 -9 l105 0 16 58 c9 31 18 63 20 70 3 9 37 12 124 12 l120 0 16
-58 c9 -31 18 -63 20 -69 3 -9 35 -13 111 -13 105 0 106 0 101 23 -4 12 -64
228 -134 480 l-127 457 -108 0 c-59 0 -108 -2 -108 -5z m143 -502 l25 -93 -60
0 c-44 0 -59 3 -56 13 3 6 15 52 28 100 13 48 27 84 31 80 4 -4 18 -50 32
-100z"/>
<path d="M11700 1280 l0 -480 267 0 c250 0 269 1 310 21 29 14 52 35 68 63 23
40 25 52 25 172 0 146 -7 167 -63 203 l-37 25 27 11 c61 26 68 45 71 191 3
120 1 139 -17 177 -11 23 -37 53 -58 67 -36 25 -37 25 -315 28 l-278 3 0 -481z
m444 244 c10 -9 16 -33 16 -59 0 -68 -13 -75 -141 -75 l-109 0 0 75 0 75 109
0 c86 0 113 -3 125 -16z m0 -370 c10 -9 16 -33 16 -59 0 -68 -13 -75 -141 -75
l-109 0 0 75 0 75 109 0 c86 0 113 -3 125 -16z"/>
<path d="M1465 1511 c-37 -22 -83 -75 -96 -110 -5 -13 -11 -63 -12 -110 -2
-74 -7 -94 -32 -139 -51 -94 -132 -151 -240 -171 -33 -6 -177 -11 -332 -11
-252 0 -277 -2 -312 -20 -48 -24 -87 -70 -101 -118 -5 -20 -10 -40 -10 -44 0
-5 174 -8 386 -8 424 0 456 3 564 61 119 63 202 161 248 293 35 99 36 233 4
329 -13 37 -27 67 -30 67 -4 0 -21 -8 -37 -19z"/>
<path d="M1520 943 c-12 -18 -44 -53 -71 -78 -27 -25 -49 -47 -49 -49 0 -7 85
-27 156 -36 104 -13 124 -32 131 -124 3 -37 9 -65 13 -64 4 2 136 86 294 188
l286 185 -62 2 c-35 2 -201 4 -370 5 l-306 3 -22 -32z"/>
</g>
</svg>
